HIERARCHY
ROOT Hips
{
	OFFSET 0.000000 0.000000 0.000000
	CHANNELS 6 Xposition Yposition Zposition Xrotation Yrotation Zrotation
	JOINT LeftUpLeg_virtual
	{
		OFFSET 0.000000 0.000000 0.000000
		CHANNELS 3 Xrotation Yrotation Zrotation
		JOINT LeftUpLeg
		{
			OFFSET 15.427100 -6.655098 0.678600
			CHANNELS 3 Xrotation Yrotation Zrotation
			JOINT LeftLeg
			{
				OFFSET 4.081073 -39.591068 13.024000
				CHANNELS 3 Xrotation Yrotation Zrotation
				JOINT LeftFoot
				{
					OFFSET -4.081074 -37.707932 -15.979700
					CHANNELS 3 Xrotation Yrotation Zrotation
					JOINT LeftToeBase
					{
						OFFSET 5.346399 -15.068900 20.645000
						CHANNELS 3 Xrotation Yrotation Zrotation
						JOINT LeftToe_End
						{
							OFFSET 2.754700 0.931300 11.300900
							CHANNELS 3 Xrotation Yrotation Zrotation
							End Site
							{
								OFFSET 0 0 0
							}
						}
					}
				}
			}
		}
	}
	JOINT RightUpLeg_virtual
	{
		OFFSET 0.000000 0.000000 0.000000
		CHANNELS 3 Xrotation Yrotation Zrotation
		JOINT RightUpLeg
		{
			OFFSET -15.569500 -6.655098 0.678600
			CHANNELS 3 Xrotation Yrotation Zrotation
			JOINT RightLeg
			{
				OFFSET -4.081825 -39.591045 13.023800
				CHANNELS 3 Xrotation Yrotation Zrotation
				JOINT RightFoot
				{
					OFFSET 4.081824 -37.707954 -15.979600
					CHANNELS 3 Xrotation Yrotation Zrotation
					JOINT RightToeBase
					{
						OFFSET -5.346400 -15.068900 20.645000
						CHANNELS 3 Xrotation Yrotation Zrotation
						JOINT RightToe_End
						{
							OFFSET -2.754700 0.931300 11.300900
							CHANNELS 3 Xrotation Yrotation Zrotation
							End Site
							{
								OFFSET 0 0 0
							}
						}
					}
				}
			}
		}
	}
	JOINT Spine_virtual
	{
		OFFSET 0.000000 0.000000 0.000000
		CHANNELS 3 Xrotation Yrotation Zrotation
		JOINT Spine
		{
			OFFSET -0.279200 12.230698 -2.892100
			CHANNELS 3 Xrotation Yrotation Zrotation
			JOINT Spine1
			{
				OFFSET -0.232667 10.192268 -1.242267
				CHANNELS 3 Xrotation Yrotation Zrotation
				JOINT Spine1_split
				{
					OFFSET -0.232667 10.192268 -1.242267
					CHANNELS 3 Xrotation Yrotation Zrotation
					JOINT Spine2
					{
						OFFSET -0.232667 10.192268 -1.242267
						CHANNELS 3 Xrotation Yrotation Zrotation
						JOINT Neck_virtual
						{
							OFFSET 0.000000 0.000000 0.000000
							CHANNELS 3 Xrotation Yrotation Zrotation
							JOINT Neck
							{
								OFFSET -0.418800 17.814194 8.416900
								CHANNELS 3 Xrotation Yrotation Zrotation
								JOINT Head
								{
									OFFSET 0.000000 7.031097 3.806800
									CHANNELS 3 Xrotation Yrotation Zrotation
									JOINT HeadTop_End
									{
										OFFSET 0.000000 24.646606 12.978600
										CHANNELS 3 Xrotation Yrotation Zrotation
										End Site
										{
											OFFSET 0 0 0
										}
									}
								}
							}
						}
						JOINT LeftShoulder_virtual
						{
							OFFSET 0.000000 0.000000 0.000000
							CHANNELS 3 Xrotation Yrotation Zrotation
							JOINT LeftShoulder
							{
								OFFSET 8.476499 7.247704 -3.868750
								CHANNELS 3 Xrotation Yrotation Zrotation
								JOINT LeftShoulder_split
								{
									OFFSET 8.476499 7.247704 -3.868750
									CHANNELS 3 Xrotation Yrotation Zrotation
									JOINT LeftArm
									{
										OFFSET 9.308998 -2.777710 0.208600
										CHANNELS 3 Xrotation Yrotation Zrotation
										JOINT LeftForeArm
										{
											OFFSET 29.972298 0.000000 0.000000
											CHANNELS 3 Xrotation Yrotation Zrotation
											JOINT LeftHand
											{
												OFFSET 26.026505 0.000000 0.000000
												CHANNELS 3 Xrotation Yrotation Zrotation
												End Site
												{
													OFFSET 0 0 0
												}
											}
										}
									}
								}
							}
						}
						JOINT RightShoulder_virtual
						{
							OFFSET 0.000000 0.000000 0.000000
							CHANNELS 3 Xrotation Yrotation Zrotation
							JOINT RightShoulder
							{
								OFFSET -7.570500 7.247704 -3.868750
								CHANNELS 3 Xrotation Yrotation Zrotation
								JOINT RightShoulder_split
								{
									OFFSET -7.570500 7.247704 -3.868750
									CHANNELS 3 Xrotation Yrotation Zrotation
									JOINT RightArm
									{
										OFFSET -9.308998 -2.777710 0.208500
										CHANNELS 3 Xrotation Yrotation Zrotation
										JOINT RightForeArm
										{
											OFFSET -29.972300 0.000000 0.000000
											CHANNELS 3 Xrotation Yrotation Zrotation
											JOINT RightHand
											{
												OFFSET -26.026505 0.000000 0.000000
												CHANNELS 3 Xrotation Yrotation Zrotation
												End Site
												{
													OFFSET 0 0 0
												}
											}
										}
									}
								}
							}
						}
					}
				}
			}
		}
	}
}
MOTION
Frames: 10
Frame Time: 0.03333333
18.982601 9.742638 2.972733 0.000000 0.000000 0.000000 -110.245633 70.587963 28.601427 -102.810897 10.967206 -8.219237 80.352039 18.813623 7.567953 18.347988 -6.038623 1.977315 -0.000004 0.000016 0.000005 0.000000 0.000000 0.000000 -110.245633 70.587963 28.601427 -22.073670 8.749395 5.620386 82.663409 -2.017524 -0.165225 24.769604 -5.162742 11.088830 -15.637634 -0.000007 -0.000004 0.000000 0.000000 0.000000 -110.245633 70.587963 28.601427 15.257451 -7.560239 -7.673370 10.269410 -4.988680 -4.175164 0.000000 0.000000 0.000000 0.000000 0.000000 0.000000 10.075507 -5.450791 -4.055234 -3.272612 7.228375 -14.282610 -28.199353 11.664152 -14.767923 0.000000 0.000000 0.000000 10.075507 -5.450791 -4.055234 4.010595 -4.908956 30.425931 0.000000 0.000000 0.000000 -98.272188 29.592956 -48.772284 -0.000001 -29.022075 0.000000 0.000000 0.000000 0.000000 10.075507 -5.450791 -4.055234 5.201621 10.649067 -16.868028 0.000000 0.000000 0.000000 -39.319517 45.122791 97.301229 179.999800 77.063535 -179.999814 0.000000 0.000000 0.000000 
18.953438 9.718784 3.036087 0.000000 0.000000 0.000000 -110.308423 70.461782 28.578273 -102.459593 11.040695 -8.245474 80.631264 17.831623 7.322741 16.420176 -5.860085 1.317797 -0.000011 -0.000003 0.000015 0.000000 0.000000 0.000000 -110.308423 70.461782 28.578273 -22.110770 8.672330 5.657813 82.752584 -2.040728 -0.197865 24.773335 -5.078652 10.954745 -15.555180 0.000002 -0.000008 0.000000 0.000000 0.000000 -110.308423 70.461782 28.578273 15.160279 -7.546936 -7.503704 10.185752 -5.031189 -4.126516 0.000000 0.000000 0.000000 0.000000 0.000000 0.000000 9.990490 -5.493610 -4.003243 -3.062562 7.250389 -14.443441 -28.110484 11.751714 -14.847704 0.000000 0.000000 0.000000 9.990490 -5.493610 -4.003243 4.107882 -4.790341 29.995052 0.000000 0.000000 0.000000 -98.160207 29.449508 -48.783550 0.000001 -28.883009 0.000001 0.000000 0.000000 0.000000 9.990490 -5.493610 -4.003243 5.169979 10.526238 -17.181295 0.000000 0.000000 0.000000 -39.744697 45.430003 97.916602 179.999663 77.336497 -179.999663 0.000000 0.000000 0.000000 
18.931313 9.702873 3.095528 0.000000 0.000000 0.000000 -110.396061 70.345443 28.575526 -102.118035 11.082137 -8.241864 80.897362 16.936265 7.086279 14.663774 -5.682142 0.755589 0.000019 -0.000002 -0.000005 0.000000 0.000000 0.000000 -110.396061 70.345443 28.575526 -22.122703 8.584293 5.698896 82.828010 -2.043720 -0.218596 24.771047 -5.027143 10.823130 -15.489607 0.000011 0.000009 0.000000 0.000000 0.000000 -110.396061 70.345443 28.575526 15.070925 -7.533098 -7.343141 10.107554 -5.069768 -4.078107 0.000000 0.000000 0.000000 0.000000 0.000000 0.000000 9.911567 -5.531535 -3.951638 -2.814089 7.259181 -14.677856 -28.098662 11.824088 -14.824903 0.000000 0.000000 0.000000 9.911567 -5.531535 -3.951638 4.162934 -4.692297 29.537051 0.000000 0.000000 0.000000 -97.926102 29.197116 -48.839626 -0.000001 -28.731488 0.000000 0.000000 0.000000 0.000000 9.911567 -5.531535 -3.951638 5.128150 10.398808 -17.376843 0.000000 0.000000 0.000000 -40.082938 45.719043 98.404653 179.999868 77.498277 -179.999855 0.000000 0.000000 0.000000 
18.912485 9.696774 3.149101 0.000000 0.000000 0.000000 -110.505897 70.237479 28.588862 -101.798034 11.096388 -8.204001 81.143344 16.186725 6.866358 13.114676 -5.528001 0.361126 0.000002 0.000003 -0.000016 0.000000 0.000000 0.000000 -110.505897 70.237479 28.588862 -22.111643 8.497376 5.742688 82.885821 -2.034391 -0.224094 24.763725 -4.993012 10.714160 -15.415464 0.000003 0.000028 0.000000 0.000000 0.000000 -110.505897 70.237479 28.588862 14.986045 -7.516222 -7.200175 10.031402 -5.101310 -4.032746 0.000000 0.000000 0.000000 0.000000 0.000000 0.000000 9.835706 -5.561055 -3.903026 -2.510883 7.244283 -14.963654 -28.169918 11.892859 -14.719194 0.000000 0.000000 0.000000 9.835706 -5.561055 -3.903026 4.162452 -4.631319 29.086275 0.000000 0.000000 0.000000 -97.556637 28.853478 -48.933022 -0.000002 -28.548159 0.000000 0.000000 0.000000 0.000000 9.835706 -5.561055 -3.903026 5.090775 10.292418 -17.484574 0.000000 0.000000 0.000000 -40.270457 45.947427 98.703077 179.999800 77.501166 -179.999800 0.000000 0.000000 0.000000 
18.894308 9.702789 3.194771 0.000000 0.000000 0.000000 -110.623725 70.126153 28.603430 -101.509718 11.089534 -8.127819 81.367565 15.600599 6.669472 11.797548 -5.413386 0.159250 -0.000000 0.000008 0.000008 0.000000 0.000000 0.000000 -110.623725 70.126153 28.603430 -22.080917 8.434164 5.795640 82.926461 -1.994523 -0.211042 24.744867 -4.985061 10.685565 -15.324742 -0.000000 0.000001 0.000000 0.000000 0.000000 -110.623725 70.126153 28.603430 14.902295 -7.499259 -7.078945 9.955228 -5.128045 -3.994228 0.000000 0.000000 0.000000 0.000000 0.000000 0.000000 9.760467 -5.585003 -3.861238 -2.153497 7.209103 -15.294120 -28.323288 11.975983 -14.538162 0.000000 0.000000 0.000000 9.760467 -5.585003 -3.861238 4.109609 -4.603224 28.649044 0.000000 0.000000 0.000000 -97.059604 28.414504 -49.038030 0.000002 -28.322322 0.000001 0.000000 0.000000 0.000000 9.760467 -5.585003 -3.861238 5.069618 10.236394 -17.536253 0.000000 0.000000 0.000000 -40.326827 46.112421 98.818077 179.999937 77.371925 -179.999937 0.000000 0.000000 0.000000 
18.875916 9.722134 3.232040 0.000000 0.000000 0.000000 -110.745145 70.001980 28.613443 -101.255690 11.066164 -8.017781 81.575292 15.142123 6.496049 10.698711 -5.336919 0.112460 -0.000003 -0.000017 -0.000013 0.000000 0.000000 0.000000 -110.745145 70.001980 28.613443 -22.026460 8.401599 5.852755 82.949874 -1.902345 -0.176138 24.707728 -5.011613 10.777711 -15.207964 0.000006 0.000039 0.000000 0.000000 0.000000 -110.745145 70.001980 28.613443 14.817962 -7.482188 -6.979803 9.879674 -5.151137 -3.965157 0.000000 0.000000 0.000000 0.000000 0.000000 0.000000 9.685975 -5.605255 -3.829124 -1.751992 7.157624 -15.662691 -28.547442 12.073053 -14.290001 0.000000 0.000000 0.000000 9.685975 -5.605255 -3.829124 4.011569 -4.600353 28.227384 0.000000 0.000000 0.000000 -96.446629 27.875373 -49.142917 0.000000 -28.047323 0.000000 0.000000 0.000000 0.000000 9.685975 -5.605255 -3.829124 5.071036 10.252155 -17.493853 0.000000 0.000000 0.000000 -40.284555 46.261387 98.746859 179.999937 77.152314 -179.999937 0.000000 0.000000 0.000000 
18.859116 9.755913 3.259346 0.000000 0.000000 0.000000 -110.909889 69.869365 28.656004 -101.034467 11.033109 -7.883164 81.768825 14.798016 6.346541 9.811054 -5.297477 0.204517 -0.000004 0.000010 -0.000003 0.000000 0.000000 0.000000 -110.909889 69.869365 28.656004 -21.931744 8.400075 5.899280 82.953208 -1.724436 -0.110554 24.628265 -5.085335 11.062462 -15.064520 0.000000 0.000002 0.000000 0.000000 0.000000 -110.909889 69.869365 28.656004 14.728576 -7.451343 -6.906520 9.805890 -5.160634 -3.946990 0.000000 0.000000 0.000000 0.000000 0.000000 0.000000 9.613899 -5.610868 -3.809179 -1.294562 7.072526 -16.050210 -28.833008 12.149306 -13.989786 0.000000 0.000000 0.000000 9.613899 -5.610868 -3.809179 3.856144 -4.640280 27.842112 0.000000 0.000000 0.000000 -95.715525 27.241052 -49.292082 -0.000002 -27.685171 0.000000 0.000000 0.000000 0.000000 9.613899 -5.610868 -3.809179 5.097557 10.353507 -17.262116 0.000000 0.000000 0.000000 -40.076244 46.428795 98.399141 179.999937 76.860173 -179.999950 0.000000 0.000000 0.000000 
18.838837 9.812134 3.273300 0.000000 0.000000 0.000000 -111.130497 69.746053 28.741091 -100.846643 10.994659 -7.728921 81.943064 14.590474 6.220585 9.154582 -5.304851 0.470750 -0.000006 0.000018 -0.000005 0.000000 0.000000 0.000000 -111.130497 69.746053 28.741091 -21.761492 8.457067 5.888310 82.928810 -1.355815 0.023104 24.429058 -5.245896 11.781547 -14.854966 0.000003 -0.000010 0.000000 0.000000 0.000000 -111.130497 69.746053 28.741091 14.629302 -7.391465 -6.859707 9.735071 -5.145129 -3.939318 0.000000 0.000000 0.000000 0.000000 0.000000 0.000000 9.546457 -5.588699 -3.802767 -0.768989 6.937131 -16.438838 -29.158139 12.171475 -13.651077 0.000000 0.000000 0.000000 9.546457 -5.588699 -3.802767 3.633392 -4.740749 27.493630 0.000000 0.000000 0.000000 -94.892112 26.521654 -49.545157 -0.000001 -27.207007 0.000000 0.000000 0.000000 0.000000 9.546457 -5.588699 -3.802767 5.143226 10.527312 -16.824513 0.000000 0.000000 0.000000 -39.642165 46.580886 97.745191 -179.999855 76.509880 179.999855 0.000000 0.000000 0.000000 
18.808647 9.903221 3.268814 0.000000 0.000000 0.000000 -111.382080 69.640520 28.851501 -100.700641 10.940369 -7.548160 82.092276 14.539538 6.111994 8.744863 -5.367677 0.939028 0.000017 -0.000003 0.000018 0.000000 0.000000 0.000000 -111.382080 69.640520 28.851501 -21.475310 8.639342 5.748151 82.863964 -0.633302 0.285283 23.993686 -5.553336 13.303827 -14.539635 0.000003 -0.000010 0.000000 0.000000 0.000000 -111.382080 69.640520 28.851501 14.524187 -7.311972 -6.823124 9.667824 -5.112356 -3.936214 0.000000 0.000000 0.000000 0.000000 0.000000 0.000000 9.483611 -5.547210 -3.801527 -0.221062 6.780241 -16.840275 -29.454504 12.163451 -13.272449 0.000000 0.000000 0.000000 9.483611 -5.547210 -3.801527 3.375536 -4.868750 27.111434 0.000000 0.000000 0.000000 -94.059027 25.728496 -49.885308 -0.000001 -26.672457 -0.000000 0.000000 0.000000 0.000000 9.483611 -5.547210 -3.801527 5.190738 10.715380 -16.335350 0.000000 0.000000 0.000000 -39.093640 46.650254 96.987709 179.999896 76.124473 -179.999896 0.000000 0.000000 0.000000 
18.768364 10.032719 3.245384 0.000000 0.000000 0.000000 -111.618091 69.549637 28.951983 -100.611801 10.855806 -7.333577 82.217924 14.661974 6.015256 8.591277 -5.489754 1.610107 0.000001 -0.000011 0.000008 0.000000 0.000000 0.000000 -111.618091 69.549637 28.951983 -21.041193 8.970776 5.466231 82.738849 0.484726 0.689641 23.263810 -6.035343 15.712516 -14.060629 -0.000001 0.000007 0.000000 0.000000 0.000000 -111.618091 69.549637 28.951983 14.426843 -7.235153 -6.776538 9.605979 -5.080966 -3.929801 0.000000 0.000000 0.000000 0.000000 0.000000 0.000000 9.425699 -5.507606 -3.798323 0.254506 6.660807 -17.286645 -29.622910 12.181793 -12.829418 0.000000 0.000000 0.000000 9.425699 -5.507606 -3.798323 3.134370 -4.961996 26.620157 0.000000 0.000000 0.000000 -93.294175 24.862794 -50.238370 -0.000002 -26.174649 -0.000001 0.000000 0.000000 0.000000 9.425699 -5.507606 -3.798323 5.223907 10.858580 -15.985691 0.000000 0.000000 0.000000 -38.580867 46.602777 96.365534 179.999896 75.683113 -179.999896 0.000000 0.000000 0.000000 
